# xmcd
# 
# Track frame offsets:
#     150
#     63075
#     86362
#     107062
#     111712
#     128112
#     143400
#     167250
# 
# Disc length: 3032
# 
# Revision: 2
# Processed by: cddbd v1.5.2PL0 Copyright (c) Steve Scherf et al.
# Submitted via: BonkEnc v1.0.8
# 
DISCID=5f0bd608
DTITLE=Niels-Henning Ørsted Pedersen - Scandinavian Wood
DYEAR=1995
DGENRE=Contemporary Jazz
TTITLE0=Lille suite for strygere og solo-bas
TTITLE1=Sig nærmer tiden da jeg må væk
TTITLE2=Samba Petit
TTITLE3=Sonata No I In G, Presto J.s Bach
TTITLE4=En yndig og frydeful sommertid
TTITLE5=Kenny
TTITLE6=Befæl du dine veje
TTITLE7=Old Folks/To A Brother
EXTD=YEAR: 1996
EXTT0=
EXTT1=
EXTT2=
EXTT3=
EXTT4=
EXTT5=
EXTT6=
EXTT7=
PLAYORDER=
